<svg xmlns="http://www.w3.org/2000/svg" viewBox="0 0 128 28" fill="#353436"><path d="M18.615 11.158v.162h6.077v5.024H21.12V28h-5.717V.062h9.723v5.224H21.12v4.513l-2.505 1.359zm18.516-5.86h-2.617V28h-5.717V5.298H26.18V.062h10.951v5.236zm4.254 5.86v.162h6.077v5.024H43.89v4.949l-2.505 1.309v.162h6.511v5.224h-9.723V.062h9.723v5.224H43.89v4.513l-2.505 1.359zm14.188 6.545h-.918V28h-5.717V.062h7.267c3.733 0 6.238 2.269 6.238 5.71v6.383c0 1.72-.633 3.117-1.712 4.064l2.22 11.769h-5.717l-1.662-10.285zm.124-12.404h-1.029v6.021l-2.505 1.359v.162h3.535c.595 0 1.029-.399 1.029-1.035v-5.51c0-.598-.434-.997-1.029-.997zM63.473.062h5.99l1.029 19.149v3.029h.595v-3.029L72.08.062h5.755L74.982 28h-8.656L63.473.062zm18.615 11.096v.162h6.077v5.024h-3.572v4.949l-2.505 1.309v.162h6.511v5.224h-9.723V.062h9.723v5.224h-4.006v4.513l-2.505 1.359zm14.175 6.545h-.918V28h-5.717V.062h7.267c3.733 0 6.238 2.269 6.238 5.71v6.383c0 1.72-.632 3.117-1.711 4.064l2.22 11.769h-5.718l-1.662-10.285zm.112-12.404h-1.029v6.021l-2.505 1.359v.162h3.535c.595 0 1.029-.399 1.029-1.035v-5.51c0-.598-.434-.997-1.029-.997zm25.114 5.859v.162h6.077v5.024h-3.572v4.949l-2.505 1.309v.162H128v5.224h-9.723V.062H128v5.224h-4.006v4.513l-2.505 1.359zm-17.325 10.808v-3.989h5.543v3.989c0 .586.422.972 1.005.972.62 0 1.004-.387 1.004-.972v-3.054c0-2.867-7.466-3.403-7.466-9.624V6.034c0-3.64 2.58-6.034 6.462-6.034s6.461 2.394 6.461 6.034V9.55h-5.556V5.96c0-.536-.347-.885-.918-.885-.533 0-.917.349-.917.885v2.668c0 2.817 7.466 3.403 7.466 9.587v3.753c0 3.64-2.617 6.034-6.536 6.034-3.944 0-6.548-2.394-6.548-6.034zM11.509.062H2.852L0 28h5.754l.583-11.12h-2.58v-.15l2.629-1.346.36-6.533V5.809h.595v3.042L8.371 28h6.003L11.509.062z"/></svg>
