<svg xmlns="http://www.w3.org/2000/svg" viewBox="0 0 638.66 353.91"><g id="Ebene_2" data-name="Ebene 2"><g id="Ebene_1-2" data-name="Ebene 1"><path d="M64.81,178.51l-36-98.9a1.74,1.74,0,0,0-3.38.6v97.71a1.74,1.74,0,0,1-1.74,1.74H1.74A1.74,1.74,0,0,1,0,177.92V1.75A1.74,1.74,0,0,1,1.74,0H22.86A1.75,1.75,0,0,1,24.5,1.15L60.28,99.61A1.75,1.75,0,0,0,63.67,99V1.75A1.74,1.74,0,0,1,65.41,0H87.32a1.75,1.75,0,0,1,1.75,1.75V177.92a1.75,1.75,0,0,1-1.75,1.74H66.45A1.76,1.76,0,0,1,64.81,178.51Z"/><path d="M101.93,177.92V1.75A1.74,1.74,0,0,1,103.67,0h21.92a1.74,1.74,0,0,1,1.74,1.75V177.92a1.74,1.74,0,0,1-1.74,1.74H103.67A1.74,1.74,0,0,1,101.93,177.92Z"/><path d="M170.13,177.92V25.68a1.74,1.74,0,0,0-1.74-1.74H141.94a1.74,1.74,0,0,1-1.74-1.74V1.75A1.74,1.74,0,0,1,141.94,0H224.3A1.74,1.74,0,0,1,226,1.75V22.2a1.74,1.74,0,0,1-1.74,1.74h-27a1.74,1.74,0,0,0-1.75,1.74V177.92a1.74,1.74,0,0,1-1.74,1.74H171.88A1.74,1.74,0,0,1,170.13,177.92Z"/><path d="M238.91,177.92V1.75A1.74,1.74,0,0,1,240.65,0h42.87q17.7,0,29.69,12.43a41.77,41.77,0,0,1,12,30.15V59.31q0,24-19.66,37.21a1.73,1.73,0,0,0-.7,2l25.8,78.86a1.75,1.75,0,0,1-1.66,2.29h-23.2a1.75,1.75,0,0,1-1.66-1.22l-23.4-74.59a1.73,1.73,0,0,0-1.66-1.22H266.05a1.74,1.74,0,0,0-1.74,1.74v73.55a1.74,1.74,0,0,1-1.74,1.74H240.65A1.74,1.74,0,0,1,238.91,177.92ZM295.47,74.48l.18-.2a18.43,18.43,0,0,0,3.3-6.61,32.88,32.88,0,0,0,.9-8.36V42.49c0-5.55-1.48-10.1-4.53-13.5s-7.34-5.13-12.87-5.13h-16.4a1.74,1.74,0,0,0-1.74,1.74V78.27A1.75,1.75,0,0,0,266.05,80h16.16A17.7,17.7,0,0,0,295.47,74.48Z"/><path d="M344.74,177.56,381.29,1.39A1.75,1.75,0,0,1,383,0h21.92a1.73,1.73,0,0,1,1.7,1.37l39.06,176.17a1.74,1.74,0,0,1-1.7,2.12H420.22a1.74,1.74,0,0,1-1.71-1.43l-6.65-35.83a1.74,1.74,0,0,0-1.71-1.42H380.06a1.74,1.74,0,0,0-1.71,1.42l-6.65,35.83a1.74,1.74,0,0,1-1.72,1.43H346.45A1.74,1.74,0,0,1,344.74,177.56Zm40.18-60.44h19.87a1.74,1.74,0,0,0,1.72-2.06l-9.94-52.71a1.75,1.75,0,0,0-3.43,0l-9.93,52.71A1.73,1.73,0,0,0,384.92,117.12Z"/><path d="M499.32,0a40.49,40.49,0,0,1,29.54,12.26,39.84,39.84,0,0,1,12.45,29.51v93.47c0,12.93-3.95,23.62-11.88,31.91s-18.23,12.51-30.85,12.51H460.72a1.74,1.74,0,0,1-1.74-1.74V1.74A1.74,1.74,0,0,1,460.72,0ZM515.9,135.32V41.77a16.4,16.4,0,0,0-5.36-12.52,18.59,18.59,0,0,0-13-5H486.13A1.74,1.74,0,0,0,484.39,26V154.21a1.74,1.74,0,0,0,1.74,1.75h10.63C509.55,155.79,515.9,149,515.9,135.32Z"/><path d="M561.73,18.28A43.84,43.84,0,0,1,577,4.9,40.59,40.59,0,0,1,596.26,0a42.15,42.15,0,0,1,18.27,4,40.11,40.11,0,0,1,14.22,10.85,41,41,0,0,1,7.8,14,55.58,55.58,0,0,1,2.11,15.58v89.91a58.39,58.39,0,0,1-1.46,13.87A45.82,45.82,0,0,1,631,161.63a40.39,40.39,0,0,1-14,12.73,39.87,39.87,0,0,1-20,5.3,42.59,42.59,0,0,1-22.75-6.36c-6.9-4.25-11.78-9.06-14.46-14.45s-4.38-9.7-4.87-13a77.58,77.58,0,0,1-.81-11.5V44.47a52.5,52.5,0,0,1,1.7-14A39,39,0,0,1,561.73,18.28Zm48.74,13.95c-3.49-4.73-8-7.18-13.73-7.18a17.25,17.25,0,0,0-8.85,2.53c-2.92,1.71-4.95,3.51-6.09,5.55a20.53,20.53,0,0,0-2.28,6.2,37.18,37.18,0,0,0-.49,5.3v90a52.08,52.08,0,0,0,.41,5.8c.25,2.12,1.71,5,4.22,8.56s6.91,5.39,13.08,5.39a15.92,15.92,0,0,0,8.53-2.29,14.81,14.81,0,0,0,5.53-5.14,17.39,17.39,0,0,0,2.19-5.55,38,38,0,0,0,.57-6.85V44.71a48.78,48.78,0,0,0-.41-7.42C613,35.9,612,34.19,610.47,32.23Z"/><path d="M173.6,223.28H465.06a1.74,1.74,0,0,1,1.15,3.05L320.52,353.48a1.75,1.75,0,0,1-2.29,0L172.46,226.33A1.74,1.74,0,0,1,173.6,223.28Z"/></g></g></svg>
