<?xml version="1.0" encoding="utf-8"?>
<!-- Generator: Adobe Illustrator 27.6.1, SVG Export Plug-In . SVG Version: 6.00 Build 0)  -->
<svg version="1.1" id="Layer_1" xmlns="http://www.w3.org/2000/svg" xmlns:xlink="http://www.w3.org/1999/xlink" x="0px" y="0px"
	 viewBox="0 0 907.96 446.03" style="enable-background:new 0 0 907.96 446.03;" xml:space="preserve">
<style type="text/css">
	.st0{clip-path:url(#SVGID_00000031191077533855916190000001175404833426935710_);}
</style>
<g>
	<defs>
		<rect id="SVGID_1_" width="907.96" height="446.03"/>
	</defs>
	<clipPath id="SVGID_00000080179152284288904020000009823889040383163045_">
		<use xlink:href="#SVGID_1_"  style="overflow:visible;"/>
	</clipPath>
	<path style="clip-path:url(#SVGID_00000080179152284288904020000009823889040383163045_);" d="M199.47,178.51l-36.03-98.9
		c-0.67-1.83-3.38-1.35-3.38,0.6v97.71c0,0.96-0.78,1.74-1.74,1.74H136.4c-0.96,0-1.74-0.78-1.74-1.74V1.75
		c0-0.96,0.78-1.74,1.74-1.74h21.11c0.73,0,1.39,0.46,1.64,1.15l35.78,98.46c0.67,1.83,3.38,1.36,3.38-0.6V1.75
		c0-0.96,0.78-1.74,1.74-1.74h21.91c0.96,0,1.74,0.78,1.74,1.74v176.17c0,0.96-0.78,1.74-1.74,1.74H201.1
		C200.37,179.66,199.72,179.2,199.47,178.51"/>
	<path style="clip-path:url(#SVGID_00000080179152284288904020000009823889040383163045_);" d="M236.58,177.91V1.75
		c0-0.96,0.78-1.74,1.74-1.74h21.91c0.96,0,1.74,0.78,1.74,1.74v176.17c0,0.96-0.78,1.74-1.74,1.74h-21.91
		C237.36,179.66,236.58,178.88,236.58,177.91"/>
	<path style="clip-path:url(#SVGID_00000080179152284288904020000009823889040383163045_);" d="M304.78,177.91V25.68
		c0-0.96-0.78-1.74-1.74-1.74h-26.45c-0.96,0-1.74-0.78-1.74-1.74V1.75c0-0.96,0.78-1.74,1.74-1.74h82.36
		c0.96,0,1.74,0.78,1.74,1.74V22.2c0,0.96-0.78,1.74-1.74,1.74h-27.02c-0.96,0-1.74,0.78-1.74,1.74v152.23
		c0,0.96-0.78,1.74-1.74,1.74h-21.91C305.56,179.66,304.78,178.88,304.78,177.91"/>
	<path style="clip-path:url(#SVGID_00000080179152284288904020000009823889040383163045_);" d="M373.56,177.92V1.75
		c0-0.96,0.78-1.74,1.74-1.74h42.87c11.79,0,21.69,4.14,29.69,12.42c8,8.28,12.04,18.3,12.04,30.15v16.73
		c0,16.03-6.55,28.46-19.66,37.21c-0.65,0.44-0.95,1.25-0.71,1.99l25.8,78.86c0.37,1.13-0.47,2.29-1.66,2.29h-23.2
		c-0.76,0-1.44-0.49-1.66-1.22l-23.4-74.59c-0.23-0.73-0.9-1.22-1.66-1.22h-13.06c-0.96,0-1.74,0.78-1.74,1.74v73.54
		c0,0.96-0.78,1.74-1.74,1.74H375.3C374.34,179.66,373.56,178.88,373.56,177.92 M430.12,74.48c0.06-0.06,0.12-0.13,0.17-0.2
		c1.52-1.96,2.65-4.16,3.3-6.6c0.66-2.48,0.91-5.3,0.91-8.37V42.49c0-5.55-1.48-10.1-4.54-13.5c-3.05-3.4-7.34-5.14-12.86-5.14
		h-16.4c-0.96,0-1.74,0.78-1.74,1.74v52.67c0,0.96,0.78,1.74,1.74,1.74h16.15C422.17,80.02,426.59,78.14,430.12,74.48"/>
	<path style="clip-path:url(#SVGID_00000080179152284288904020000009823889040383163045_);" d="M479.39,177.56L515.94,1.39
		c0.17-0.81,0.88-1.39,1.71-1.39h21.92c0.82,0,1.53,0.57,1.7,1.37l39.06,176.17c0.24,1.09-0.59,2.12-1.7,2.12h-23.76
		c-0.84,0-1.56-0.6-1.72-1.43l-6.64-35.83c-0.15-0.83-0.87-1.43-1.72-1.43h-30.09c-0.84,0-1.56,0.6-1.71,1.43l-6.65,35.83
		c-0.15,0.83-0.87,1.43-1.72,1.43H481.1C479.99,179.66,479.17,178.64,479.39,177.56 M519.57,117.12h19.87
		c1.09,0,1.92-0.99,1.71-2.07l-9.94-52.7c-0.36-1.89-3.07-1.89-3.43,0l-9.94,52.7C517.66,116.13,518.48,117.12,519.57,117.12"/>
	<path style="clip-path:url(#SVGID_00000080179152284288904020000009823889040383163045_);" d="M633.97,0
		c11.39,0,21.29,4.06,29.54,12.26c8.33,8.2,12.45,17.98,12.45,29.5v93.48c0,12.93-3.96,23.62-11.88,31.9
		c-7.92,8.37-18.23,12.51-30.85,12.51h-37.86c-0.96,0-1.74-0.78-1.74-1.74V1.74c0-0.96,0.78-1.74,1.74-1.74H633.97z M650.56,135.32
		V41.77c0-5.06-1.82-9.2-5.36-12.51c-3.63-3.32-7.92-4.97-13.04-4.97h-11.37c-0.96,0-1.74,0.78-1.74,1.74v128.19
		c0,0.96,0.78,1.74,1.74,1.74h10.63C644.2,155.79,650.56,149,650.56,135.32"/>
	<path style="clip-path:url(#SVGID_00000080179152284288904020000009823889040383163045_);" d="M696.38,18.28
		c4.06-5.63,9.1-10.12,15.27-13.38C717.83,1.63,724.25,0,730.91,0c6.5,0,12.59,1.3,18.28,4c5.68,2.61,10.4,6.28,14.21,10.85
		c3.74,4.57,6.34,9.22,7.8,14.03c1.38,4.73,2.11,9.95,2.11,15.58v89.91c0,5.3-0.49,9.95-1.46,13.87c-0.97,4-3,8.4-6.17,13.38
		c-3.17,4.9-7.8,9.14-13.97,12.73c-6.17,3.51-12.84,5.3-19.98,5.3c-8.28,0-15.84-2.12-22.75-6.36c-6.9-4.24-11.78-9.06-14.46-14.44
		c-2.76-5.39-4.39-9.71-4.88-12.97c-0.49-3.26-0.81-7.1-0.81-11.5V44.47c0-5.3,0.57-9.95,1.7-14.03
		C691.59,26.36,693.62,22.28,696.38,18.28 M745.12,32.23c-3.49-4.73-8.04-7.18-13.73-7.18c-3,0-5.93,0.82-8.85,2.53
		c-2.92,1.71-4.96,3.51-6.09,5.55c-1.14,2.04-1.87,4.08-2.28,6.2c-0.32,2.12-0.49,3.92-0.49,5.3v89.99c0,1.8,0.16,3.67,0.41,5.79
		c0.24,2.12,1.71,4.98,4.22,8.57c2.52,3.59,6.91,5.39,13.08,5.39c3.17,0,6.01-0.74,8.53-2.28c2.52-1.47,4.39-3.18,5.52-5.14
		c1.14-1.96,1.87-3.75,2.19-5.55c0.33-1.79,0.57-4.08,0.57-6.85V44.71c0-3.51-0.16-5.96-0.4-7.42
		C747.64,35.9,746.67,34.19,745.12,32.23"/>
	<path style="clip-path:url(#SVGID_00000080179152284288904020000009823889040383163045_);" d="M308.25,223.27h291.46
		c1.61,0,2.36,2,1.15,3.06L455.17,353.48c-0.66,0.57-1.64,0.57-2.29,0L307.11,226.33C305.89,225.27,306.64,223.27,308.25,223.27"/>
	<g style="clip-path:url(#SVGID_00000080179152284288904020000009823889040383163045_);">
		<path d="M2.71,432.26v-46.29h16l8.17,33.76l8.17-33.76h16v46.29h-9.39v-35.81h-1.02l-9.05,33.76h-9.39l-9.05-33.76H12.1v35.81
			H2.71z"/>
		<path d="M81.67,416.81c0,5.4,2.75,8.1,8.24,8.1c5.49,0,8.24-2.7,8.24-8.1v-30.84h9.39v30.63c0,5.67-1.46,9.84-4.39,12.49
			c-2.93,2.65-7.34,3.98-13.24,3.98c-5.9,0-10.31-1.33-13.24-3.98c-2.93-2.66-4.39-6.82-4.39-12.49v-30.63h9.39V416.81z"/>
		<path d="M155.12,432.26h-26.34v-46.29h9.39v37.98h16.95V432.26z"/>
		<path d="M163.16,394.27v-8.3h34.04v8.3h-12.25v37.98h-9.39v-37.98H163.16z"/>
		<path d="M214.69,432.26v-46.29h9.39v46.29H214.69z"/>
		<path d="M262.75,418.78h-7.62v13.48h-9.39v-46.29h17.02c10.98,0,16.47,5.35,16.47,16.06c0,5.4-1.4,9.54-4.19,12.42
			C272.24,417.34,268.15,418.78,262.75,418.78z M255.12,410.75h7.56c4.67,0,7.01-2.9,7.01-8.71c0-2.86-0.57-4.91-1.7-6.16
			c-1.14-1.25-2.91-1.87-5.31-1.87h-7.56V410.75z"/>
		<path d="M323.74,432.26h-26.34v-46.29h9.39v37.98h16.95V432.26z"/>
		<path d="M337.22,432.26l10.42-46.29h17.83l10.42,46.29h-9.39l-1.84-8.37h-16.2l-1.84,8.37H337.22z M354.92,393.73l-4.7,21.99
			h12.66l-4.7-21.99H354.92z"/>
		<path d="M408.69,432.26h-9.39v-18.72L385,385.97h10.42l8.51,18.45l8.51-18.45h10.42l-14.16,27.57V432.26z"/>
		<path d="M439.53,432.26v-46.29h29.95v8.17h-20.56v10.82h16.47v8.03h-16.47v11.1h20.56v8.17H439.53z"/>
		<path d="M498.21,416.74v15.52h-9.39v-46.29h17.97c10.89,0,16.34,5.08,16.34,15.25c0,6.04-2.27,10.48-6.81,13.34l6.6,17.7h-10.28
			l-5.38-15.52H498.21z M511.89,406.66c1.09-1.36,1.63-3.15,1.63-5.38c0-2.22-0.58-3.99-1.74-5.31c-1.16-1.32-2.82-1.97-5-1.97
			h-8.58v14.7h8.71C509.15,408.71,510.8,408.03,511.89,406.66z"/>
		<path d="M583.37,393.32c-4.95,0-7.42,1.63-7.42,4.9c0,1.45,0.61,2.56,1.84,3.34c1.23,0.77,4.09,1.88,8.61,3.34
			c4.52,1.45,7.68,3.1,9.5,4.94c1.81,1.84,2.72,4.66,2.72,8.47c0,4.86-1.48,8.53-4.42,11.03c-2.95,2.5-6.81,3.74-11.57,3.74
			c-3.54,0-7.87-0.54-13-1.63l-2.45-0.48l0.95-7.28c6.08,0.82,10.73,1.23,13.95,1.23c4.81,0,7.22-2,7.22-5.99
			c0-1.45-0.56-2.59-1.67-3.4c-1.11-0.82-3.32-1.7-6.64-2.65c-5.27-1.5-8.98-3.28-11.13-5.34c-2.16-2.06-3.23-4.94-3.23-8.61
			c0-4.63,1.41-8.08,4.22-10.35c2.81-2.27,6.67-3.4,11.57-3.4c3.36,0,7.63,0.45,12.8,1.36l2.45,0.48l-0.75,7.42
			C590.52,393.69,586,393.32,583.37,393.32z"/>
		<path d="M617.74,432.26v-46.29h29.95v8.17h-20.56v10.82h16.47v8.03h-16.47v11.1h20.56v8.17H617.74z"/>
		<path d="M676.42,416.74v15.52h-9.39v-46.29H685c10.89,0,16.34,5.08,16.34,15.25c0,6.04-2.27,10.48-6.81,13.34l6.6,17.7h-10.28
			l-5.38-15.52H676.42z M690.11,406.66c1.09-1.36,1.63-3.15,1.63-5.38c0-2.22-0.58-3.99-1.74-5.31c-1.16-1.32-2.82-1.97-5-1.97
			h-8.58v14.7h8.71C687.36,408.71,689.02,408.03,690.11,406.66z"/>
		<path d="M745.25,385.97h9.87l-10.76,46.29H727l-10.76-46.29h9.87l8.03,38.12h3.06L745.25,385.97z"/>
		<path d="M772.82,432.26v-46.29h29.95v8.17h-20.56v10.82h16.47v8.03h-16.47v11.1h20.56v8.17H772.82z"/>
		<path d="M831.49,416.74v15.52h-9.39v-46.29h17.97c10.89,0,16.34,5.08,16.34,15.25c0,6.04-2.27,10.48-6.81,13.34l6.6,17.7h-10.28
			l-5.38-15.52H831.49z M845.18,406.66c1.09-1.36,1.63-3.15,1.63-5.38c0-2.22-0.58-3.99-1.74-5.31c-1.16-1.32-2.82-1.97-5-1.97
			h-8.58v14.7h8.71C842.43,408.71,844.09,408.03,845.18,406.66z"/>
		<path d="M890.1,393.32c-4.95,0-7.42,1.63-7.42,4.9c0,1.45,0.61,2.56,1.84,3.34c1.23,0.77,4.09,1.88,8.61,3.34
			c4.52,1.45,7.68,3.1,9.5,4.94c1.81,1.84,2.72,4.66,2.72,8.47c0,4.86-1.48,8.53-4.42,11.03c-2.95,2.5-6.81,3.74-11.57,3.74
			c-3.54,0-7.87-0.54-13-1.63l-2.45-0.48l0.95-7.28c6.08,0.82,10.73,1.23,13.96,1.23c4.81,0,7.22-2,7.22-5.99
			c0-1.45-0.56-2.59-1.67-3.4c-1.11-0.82-3.32-1.7-6.64-2.65c-5.27-1.5-8.98-3.28-11.13-5.34c-2.16-2.06-3.23-4.94-3.23-8.61
			c0-4.63,1.41-8.08,4.22-10.35s6.67-3.4,11.57-3.4c3.36,0,7.62,0.45,12.8,1.36l2.45,0.48l-0.75,7.42
			C897.25,393.69,892.74,393.32,890.1,393.32z"/>
	</g>
</g>
</svg>
