<?xml version="1.0" encoding="UTF-8" standalone="no"?>
<svg
   xmlns:dc="http://purl.org/dc/elements/1.1/"
   xmlns:cc="http://creativecommons.org/ns#"
   xmlns:rdf="http://www.w3.org/1999/02/22-rdf-syntax-ns#"
   xmlns:svg="http://www.w3.org/2000/svg"
   xmlns="http://www.w3.org/2000/svg"
   version="1.1"
   width="30"
   height="30"
   viewBox="0 0 30 30"
   id="svg865">
  <metadata
     id="metadata871">
    <rdf:RDF>
      <cc:Work
         rdf:about="">
        <dc:format>image/svg+xml</dc:format>
        <dc:type
           rdf:resource="http://purl.org/dc/dcmitype/StillImage" />
        <dc:title></dc:title>
      </cc:Work>
    </rdf:RDF>
  </metadata>
  <defs
     id="defs869" />
  <ellipse
     ry="13.195252"
     rx="13.377183"
     cy="15"
     cx="15"
     id="path821"
     style="opacity:1;vector-effect:none;fill:#f0f0f0;fill-opacity:1;stroke:none;stroke-width:1.23582745;stroke-linecap:butt;stroke-linejoin:miter;stroke-miterlimit:4;stroke-dasharray:none;stroke-dashoffset:0;stroke-opacity:1" />
  <path
     d="m 10.97,18.25 -2.97,3 c -0.33,0.3 -0.77,0.5 -1.25,0.5 A 1.75,1.75 0 0 1 5,20 V 19.75 L 6,12.37 C 6.21,10.06 8.14,8.25 10.5,8.25 h 9 c 2.36,0 4.29,1.81 4.5,4.12 l 1,7.38 V 20 a 1.75,1.75 0 0 1 -1.75,1.75 c -0.48,0 -0.92,-0.2 -1.25,-0.5 l -2.97,-3 h -8.06 m -0.97,-8 v 2 H 8 v 1 h 2 v 2 h 1 v -2 h 2 v -1 h -2 v -2 h -1 m 9.5,0 A 0.75,0.75 0 0 0 18.75,11 0.75,0.75 0 0 0 19.5,11.75 0.75,0.75 0 0 0 20.25,11 0.75,0.75 0 0 0 19.5,10.25 M 17.75,12 A 0.75,0.75 0 0 0 17,12.75 0.75,0.75 0 0 0 17.75,13.5 0.75,0.75 0 0 0 18.5,12.75 0.75,0.75 0 0 0 17.75,12 m 3.5,0 A 0.75,0.75 0 0 0 20.5,12.75 0.75,0.75 0 0 0 21.25,13.5 0.75,0.75 0 0 0 22,12.75 0.75,0.75 0 0 0 21.25,12 m -1.75,1.75 a 0.75,0.75 0 0 0 -0.75,0.75 0.75,0.75 0 0 0 0.75,0.75 0.75,0.75 0 0 0 0.75,-0.75 0.75,0.75 0 0 0 -0.75,-0.75 z"
     id="path863"
     style="fill:#326de6;fill-opacity:1" />
</svg>
